<svg width="73" height="50" viewBox="0 0 73 50" fill="none" xmlns="http://www.w3.org/2000/svg">
<path d="M21.5 3.71875C20.4375 3.76042 19.8125 4.01042 19.625 4.46875C19.4375 4.90625 19.5729 5.69792 20.0312 6.84375L29.6562 30.5312L33.4688 20.2812L28.0938 6.78125C27.6354 5.67708 27.0729 4.91667 26.4062 4.5C25.7396 4.0625 24.6875 3.80208 23.25 3.71875C22.7292 2.38542 22.7292 1.14583 23.25 0H45.3125C45.8333 1.14583 45.8333 2.38542 45.3125 3.71875C43.0625 3.80208 41.5938 4.11458 40.9062 4.65625C40.2188 5.17708 40.0521 5.90625 40.4062 6.84375L49.3438 30.3438L58.125 6.84375C58.5417 5.69792 58.3958 4.9375 57.6875 4.5625C57 4.16667 55.6042 3.88542 53.5 3.71875C53 2.38542 53 1.14583 53.5 0H72.0625C72.5833 1.14583 72.5833 2.38542 72.0625 3.71875C68.9167 3.92708 66.8958 4.23958 66 4.65625C65.0625 5.13542 64.3958 5.86458 64 6.84375L48 49.1562H44.8125L36.4375 27.5625L28.2812 49.1562H25.1562L7.6875 6.84375C7.27083 5.82292 6.53125 5.10417 5.46875 4.6875C4.42708 4.25 2.86458 3.92708 0.78125 3.71875C0.260417 2.38542 0.260417 1.14583 0.78125 0H21.5C22.0208 1.14583 22.0208 2.38542 21.5 3.71875ZM20.4375 1.03125H1.875C1.60417 1.44792 1.60417 1.9375 1.875 2.5C5.625 2.875 7.94792 4.15625 8.84375 6.34375L26 47.875H27.4062L36.2812 24.0625L45.7188 47.875H47.125L63 5.9375C63.4583 4.75 64.2917 3.92708 65.5 3.46875C66.7292 2.98958 68.4688 2.66667 70.7188 2.5C70.9896 1.9375 70.9896 1.44792 70.7188 1.03125H54.8438C54.5938 1.44792 54.5938 1.9375 54.8438 2.5C57.3229 2.79167 58.8438 3.17708 59.4062 3.65625C60.0938 4.19792 60.2396 4.95833 59.8438 5.9375L47.6875 38.6562L35.3438 6.34375C34.8646 5.21875 35.3542 4.34375 36.8125 3.71875C38.2708 3.07292 40.6562 2.66667 43.9688 2.5C44.2396 1.9375 44.2396 1.44792 43.9688 1.03125H24.3438C24.0729 1.44792 24.0729 1.9375 24.3438 2.5C25.6562 2.625 26.6875 2.96875 27.4375 3.53125C28.1875 4.07292 28.8125 5.01042 29.3125 6.34375L34.8125 20.2812L27.9688 38.6562L14.8438 6.34375C14.1354 4.92708 14.2083 3.98958 15.0625 3.53125C15.9167 3.05208 17.7083 2.70833 20.4375 2.5C20.6875 1.9375 20.6875 1.44792 20.4375 1.03125Z" fill="black"/>
</svg>
