<svg width="278" height="52" viewBox="0 0 278 52" fill="none" xmlns="http://www.w3.org/2000/svg">
<path d="M21.5 5.78125C20.4375 5.82292 19.8125 6.07292 19.625 6.53125C19.4375 6.96875 19.5729 7.76042 20.0312 8.90625L29.6562 32.5938L33.4688 22.3438L28.0938 8.84375C27.6354 7.73958 27.0729 6.97917 26.4062 6.5625C25.7396 6.125 24.6875 5.86458 23.25 5.78125C22.7292 4.44792 22.7292 3.20833 23.25 2.0625H45.3125C45.8333 3.20833 45.8333 4.44792 45.3125 5.78125C43.0625 5.86458 41.5938 6.17708 40.9062 6.71875C40.2188 7.23958 40.0521 7.96875 40.4062 8.90625L49.3438 32.4062L58.125 8.90625C58.5417 7.76042 58.3958 7 57.6875 6.625C57 6.22917 55.6042 5.94792 53.5 5.78125C53 4.44792 53 3.20833 53.5 2.0625H72.0625C72.5833 3.20833 72.5833 4.44792 72.0625 5.78125C68.9167 5.98958 66.8958 6.30208 66 6.71875C65.0625 7.19792 64.3958 7.92708 64 8.90625L48 51.2188H44.8125L36.4375 29.625L28.2812 51.2188H25.1562L7.6875 8.90625C7.27083 7.88542 6.53125 7.16667 5.46875 6.75C4.42708 6.3125 2.86458 5.98958 0.78125 5.78125C0.260417 4.44792 0.260417 3.20833 0.78125 2.0625H21.5C22.0208 3.20833 22.0208 4.44792 21.5 5.78125ZM20.4375 3.09375H1.875C1.60417 3.51042 1.60417 4 1.875 4.5625C5.625 4.9375 7.94792 6.21875 8.84375 8.40625L26 49.9375H27.4062L36.2812 26.125L45.7188 49.9375H47.125L63 8C63.4583 6.8125 64.2917 5.98958 65.5 5.53125C66.7292 5.05208 68.4688 4.72917 70.7188 4.5625C70.9896 4 70.9896 3.51042 70.7188 3.09375H54.8438C54.5938 3.51042 54.5938 4 54.8438 4.5625C57.3229 4.85417 58.8438 5.23958 59.4062 5.71875C60.0938 6.26042 60.2396 7.02083 59.8438 8L47.6875 40.7188L35.3438 8.40625C34.8646 7.28125 35.3542 6.40625 36.8125 5.78125C38.2708 5.13542 40.6562 4.72917 43.9688 4.5625C44.2396 4 44.2396 3.51042 43.9688 3.09375H24.3438C24.0729 3.51042 24.0729 4 24.3438 4.5625C25.6562 4.6875 26.6875 5.03125 27.4375 5.59375C28.1875 6.13542 28.8125 7.07292 29.3125 8.40625L34.8125 22.3438L27.9688 40.7188L14.8438 8.40625C14.1354 6.98958 14.2083 6.05208 15.0625 5.59375C15.9167 5.11458 17.7083 4.77083 20.4375 4.5625C20.6875 4 20.6875 3.51042 20.4375 3.09375ZM76.4963 22.6562C78.1629 22.6562 79.3713 23.1979 80.1213 24.2812C80.8713 25.3438 81.2463 26.6771 81.2463 28.2812C81.2463 28.8854 81.1421 29.5729 80.9338 30.3438H68.7463C69.3921 27.7396 70.4338 25.8125 71.8713 24.5625C73.3296 23.2917 74.8713 22.6562 76.4963 22.6562ZM68.4338 32.4688H85.465C85.7983 31.4271 85.965 30.3542 85.965 29.25C85.965 26.8125 85.2671 24.7708 83.8713 23.125C82.4963 21.4583 80.2983 20.625 77.2775 20.625C73.34 20.625 70.0275 22.0521 67.34 24.9062C64.6525 27.7604 63.3088 31.3854 63.3088 35.7812C63.3088 40.4688 64.59 44 67.1525 46.375C69.715 48.75 72.7254 49.9375 76.1838 49.9375C78.7463 49.9375 81.1213 49.25 83.3088 47.875C85.5171 46.4792 87.1317 44.3854 88.1525 41.5938C87.8608 41.2604 87.4546 41.0312 86.9338 40.9062C86.8504 41.0312 86.6004 41.375 86.1838 41.9375C85.7879 42.4792 85.4963 42.875 85.3088 43.125C85.1213 43.3542 84.7775 43.6979 84.2775 44.1562C83.7983 44.5938 83.3296 44.9167 82.8713 45.125C82.4338 45.3333 81.8713 45.5417 81.1838 45.75C80.4963 45.9375 79.7463 46.0312 78.9338 46.0312C75.7254 46.0312 73.1733 45.0833 71.2775 43.1875C69.3817 41.2708 68.3921 38.6979 68.3088 35.4688C68.3088 34.7396 68.3504 33.7396 68.4338 32.4688ZM86.4338 39.4375C87.7463 39.7292 88.8088 40.3854 89.6213 41.4062C88.4338 44.6562 86.6004 47.1042 84.1213 48.75C81.6421 50.3958 78.9963 51.2188 76.1838 51.2188C72.3504 51.2188 69.0275 49.9271 66.215 47.3438C63.4233 44.7604 62.0275 40.9062 62.0275 35.7812C62.0275 31.1354 63.4546 27.2396 66.3088 24.0938C69.1838 20.9271 73.2463 19.3438 78.4963 19.3438C86.4338 19.3438 90.4025 22.6458 90.4025 29.25C90.4025 30.5417 90.1004 32.0417 89.4963 33.75H72.715V35.7812C72.8192 38.3021 73.5067 40.3542 74.7775 41.9375C76.0483 43.5 77.7983 44.4167 80.0275 44.6875C81.34 44.5625 82.4233 44.1146 83.2775 43.3438C84.1317 42.5729 85.1838 41.2708 86.4338 39.4375ZM79.965 28.2812C79.965 25.9896 79.1942 24.6042 77.6525 24.125C75.8192 24.6875 74.4546 26.3333 73.5588 29.0625H79.9025C79.9025 28.9792 79.9129 28.8542 79.9338 28.6875C79.9546 28.5208 79.965 28.3854 79.965 28.2812ZM108.391 24.7188C110.87 24.7188 112.745 25.7188 114.016 27.7188C115.308 29.7188 115.954 32.2604 115.954 35.3438C115.954 39.8646 115.152 43.0833 113.548 45C111.943 46.9167 110.204 47.875 108.329 47.875C104.975 47.875 102.485 46.6354 100.86 44.1562C100.777 39.9896 100.735 34.5312 100.735 27.7812C103.11 25.7396 105.662 24.7188 108.391 24.7188ZM89.985 4.09375C89.8808 4.73958 89.8808 5.22917 89.985 5.5625C92.7975 5.70833 94.7975 6.13542 95.985 6.84375C96.1517 22.3854 96.1517 35.4271 95.985 45.9688C99.1517 48.6146 102.912 49.9375 107.266 49.9375C109.725 49.9375 111.891 49.4479 113.766 48.4688C115.662 47.4688 117.141 46.1771 118.204 44.5938C119.266 42.9896 120.058 41.2812 120.579 39.4688C121.12 37.6562 121.391 35.7917 121.391 33.875C121.391 29.8125 120.464 26.5938 118.61 24.2188C116.756 21.8229 114.36 20.625 111.423 20.625C107.798 20.625 104.235 22.1979 100.735 25.3438V2.375C100.548 2.04167 100.183 1.76042 99.6413 1.53125C96.8704 2.86458 93.6517 3.71875 89.985 4.09375ZM100.079 0C102.35 0.166667 104.037 0.854167 105.141 2.0625V21C107.308 19.8958 110.141 19.3438 113.641 19.3438C117.225 19.3438 120.141 20.6562 122.391 23.2812C124.662 25.9062 125.798 29.4375 125.798 33.875C125.798 35.9583 125.495 37.9792 124.891 39.9375C124.308 41.8958 123.391 43.7396 122.141 45.4688C120.912 47.1979 119.204 48.5833 117.016 49.625C114.85 50.6875 112.339 51.2188 109.485 51.2188C103.423 51.2188 98.4954 49.6562 94.7038 46.5312C94.9538 33.8229 94.9538 20.8542 94.7038 7.625C93.3496 7.1875 91.4538 6.90625 89.0163 6.78125C88.5371 5.42708 88.5579 4.125 89.0788 2.875C92.7871 2.54167 96.4538 1.58333 100.079 0ZM114.673 35.3438C114.673 32.9062 114.225 30.8229 113.329 29.0938C112.433 27.3646 111.11 26.375 109.36 26.125C107.902 26.3333 106.495 27.0521 105.141 28.2812C105.141 34.5729 105.183 39.7604 105.266 43.8438C106.204 45.3854 107.548 46.2812 109.298 46.5312C110.756 46.1979 112.016 45.1458 113.079 43.375C114.141 41.6042 114.673 38.9271 114.673 35.3438ZM144.3 4.09375C148.238 3.71875 151.758 2.86458 154.863 1.53125C155.404 1.76042 155.758 2.04167 155.925 2.375C155.925 25.9792 156.019 40.1042 156.206 44.75C156.227 45.2917 156.383 45.7604 156.675 46.1562C156.988 46.5312 157.425 46.8229 157.988 47.0312C158.55 47.2396 159.019 47.3958 159.394 47.5C159.769 47.5833 160.258 47.6667 160.863 47.75C160.946 48.0833 160.988 48.3438 160.988 48.5312C160.988 48.6562 160.946 48.8854 160.863 49.2188C160.133 49.1771 159.383 49.1354 158.613 49.0938C157.863 49.0521 157.269 49.0208 156.831 49C156.394 48.9792 155.988 48.9688 155.613 48.9688C155.3 48.9688 154.946 48.9792 154.55 49C154.154 49.0208 153.613 49.0521 152.925 49.0938C152.238 49.1354 151.56 49.1771 150.894 49.2188C150.79 49.1771 150.696 49.125 150.613 49.0625C150.55 49.0208 150.498 48.9896 150.456 48.9688C150.435 48.9271 150.404 48.875 150.363 48.8125C150.321 48.7292 150.29 48.6771 150.269 48.6562C150.248 48.6354 150.217 48.5729 150.175 48.4688C150.154 48.3438 150.133 48.2708 150.113 48.25C150.196 47.75 150.238 46.625 150.238 44.875C146.8 48.25 143.623 49.9375 140.706 49.9375C137.498 49.9375 134.883 48.7292 132.863 46.3125C130.842 43.8958 129.831 40.6042 129.831 36.4375C129.831 35 129.998 33.5625 130.331 32.125C130.665 30.6875 131.217 29.2708 131.988 27.875C132.758 26.4792 133.706 25.25 134.831 24.1875C135.956 23.125 137.383 22.2708 139.113 21.625C140.842 20.9583 142.758 20.625 144.863 20.625C146.425 20.625 148.258 20.9583 150.363 21.625C150.321 17.6667 150.3 12.7396 150.3 6.84375C149.113 6.15625 147.113 5.72917 144.3 5.5625C144.217 5.22917 144.175 4.97917 144.175 4.8125C144.175 4.66667 144.217 4.42708 144.3 4.09375ZM143.706 45.8438C145.79 45.8438 147.988 44.7292 150.3 42.5C150.342 40.4583 150.363 36.5938 150.363 30.9062V26.375C148.925 23.8958 146.727 22.6562 143.769 22.6562C143.144 22.6562 142.519 22.75 141.894 22.9375C141.269 23.125 140.602 23.5 139.894 24.0625C139.185 24.625 138.56 25.3438 138.019 26.2188C137.498 27.0938 137.06 28.3125 136.706 29.875C136.352 31.4167 136.175 33.1979 136.175 35.2188C136.175 38.3021 136.81 40.8438 138.081 42.8438C139.373 44.8438 141.248 45.8438 143.706 45.8438ZM187.553 32.4688H170.521C170.438 33.7188 170.396 34.8229 170.396 35.7812C170.459 38.8854 171.365 41.375 173.115 43.25C174.865 45.1042 177.209 46.0312 180.146 46.0312C180.938 46.0312 181.678 45.9479 182.365 45.7812C183.053 45.5938 183.615 45.3854 184.053 45.1562C184.511 44.9271 184.98 44.5938 185.459 44.1562C185.938 43.7188 186.282 43.375 186.49 43.125C186.719 42.8542 187.021 42.4583 187.396 41.9375C187.771 41.3958 188.021 41.0521 188.146 40.9062C188.646 41.0104 189.053 41.2396 189.365 41.5938C188.323 44.3854 186.709 46.4792 184.521 47.875C182.334 49.25 179.959 49.9375 177.396 49.9375C176.125 49.9375 174.886 49.7708 173.678 49.4375C172.49 49.125 171.334 48.6042 170.209 47.875C169.084 47.1458 168.105 46.25 167.271 45.1875C166.438 44.1042 165.771 42.7604 165.271 41.1562C164.771 39.5312 164.521 37.7396 164.521 35.7812C164.521 31.3854 165.865 27.7604 168.553 24.9062C171.24 22.0521 174.542 20.625 178.459 20.625C180.188 20.625 181.688 20.875 182.959 21.375C184.25 21.8542 185.25 22.5104 185.959 23.3438C186.688 24.1771 187.219 25.0938 187.553 26.0938C187.907 27.0729 188.084 28.125 188.084 29.25C188.084 30.2917 187.907 31.3646 187.553 32.4688ZM177.709 22.6562C176.271 22.6562 174.907 23.2917 173.615 24.5625C172.344 25.8333 171.428 27.7604 170.865 30.3438H182.115C182.323 29.5521 182.428 28.8646 182.428 28.2812C182.428 26.6562 182.053 25.3125 181.303 24.25C180.553 23.1875 179.355 22.6562 177.709 22.6562ZM216.242 32.4688H199.211C199.128 33.7188 199.086 34.8229 199.086 35.7812C199.149 38.8854 200.055 41.375 201.805 43.25C203.555 45.1042 205.899 46.0312 208.836 46.0312C209.628 46.0312 210.367 45.9479 211.055 45.7812C211.742 45.5938 212.305 45.3854 212.742 45.1562C213.201 44.9271 213.67 44.5938 214.149 44.1562C214.628 43.7188 214.972 43.375 215.18 43.125C215.409 42.8542 215.711 42.4583 216.086 41.9375C216.461 41.3958 216.711 41.0521 216.836 40.9062C217.336 41.0104 217.742 41.2396 218.055 41.5938C217.013 44.3854 215.399 46.4792 213.211 47.875C211.024 49.25 208.649 49.9375 206.086 49.9375C204.815 49.9375 203.576 49.7708 202.367 49.4375C201.18 49.125 200.024 48.6042 198.899 47.875C197.774 47.1458 196.795 46.25 195.961 45.1875C195.128 44.1042 194.461 42.7604 193.961 41.1562C193.461 39.5312 193.211 37.7396 193.211 35.7812C193.211 31.3854 194.555 27.7604 197.242 24.9062C199.93 22.0521 203.232 20.625 207.149 20.625C208.878 20.625 210.378 20.875 211.649 21.375C212.94 21.8542 213.94 22.5104 214.649 23.3438C215.378 24.1771 215.909 25.0938 216.242 26.0938C216.597 27.0729 216.774 28.125 216.774 29.25C216.774 30.2917 216.597 31.3646 216.242 32.4688ZM206.399 22.6562C204.961 22.6562 203.597 23.2917 202.305 24.5625C201.034 25.8333 200.117 27.7604 199.555 30.3438H210.805C211.013 29.5521 211.117 28.8646 211.117 28.2812C211.117 26.6562 210.742 25.3125 209.992 24.25C209.242 23.1875 208.045 22.6562 206.399 22.6562ZM236.37 4.09375C240.307 3.71875 243.828 2.86458 246.932 1.53125C247.474 1.76042 247.828 2.04167 247.995 2.375C247.995 25.9792 248.089 40.1042 248.276 44.75C248.297 45.2917 248.453 45.7604 248.745 46.1562C249.057 46.5312 249.495 46.8229 250.057 47.0312C250.62 47.2396 251.089 47.3958 251.464 47.5C251.839 47.5833 252.328 47.6667 252.932 47.75C253.016 48.0833 253.057 48.3438 253.057 48.5312C253.057 48.6562 253.016 48.8854 252.932 49.2188C252.203 49.1771 251.453 49.1354 250.682 49.0938C249.932 49.0521 249.339 49.0208 248.901 49C248.464 48.9792 248.057 48.9688 247.682 48.9688C247.37 48.9688 247.016 48.9792 246.62 49C246.224 49.0208 245.682 49.0521 244.995 49.0938C244.307 49.1354 243.63 49.1771 242.964 49.2188C242.86 49.1771 242.766 49.125 242.682 49.0625C242.62 49.0208 242.568 48.9896 242.526 48.9688C242.505 48.9271 242.474 48.875 242.432 48.8125C242.391 48.7292 242.36 48.6771 242.339 48.6562C242.318 48.6354 242.287 48.5729 242.245 48.4688C242.224 48.3438 242.203 48.2708 242.182 48.25C242.266 47.75 242.307 46.625 242.307 44.875C238.87 48.25 235.693 49.9375 232.776 49.9375C229.568 49.9375 226.953 48.7292 224.932 46.3125C222.912 43.8958 221.901 40.6042 221.901 36.4375C221.901 35 222.068 33.5625 222.401 32.125C222.735 30.6875 223.287 29.2708 224.057 27.875C224.828 26.4792 225.776 25.25 226.901 24.1875C228.026 23.125 229.453 22.2708 231.182 21.625C232.912 20.9583 234.828 20.625 236.932 20.625C238.495 20.625 240.328 20.9583 242.432 21.625C242.391 17.6667 242.37 12.7396 242.37 6.84375C241.182 6.15625 239.182 5.72917 236.37 5.5625C236.287 5.22917 236.245 4.97917 236.245 4.8125C236.245 4.66667 236.287 4.42708 236.37 4.09375ZM235.776 45.8438C237.86 45.8438 240.057 44.7292 242.37 42.5C242.412 40.4583 242.432 36.5938 242.432 30.9062V26.375C240.995 23.8958 238.797 22.6562 235.839 22.6562C235.214 22.6562 234.589 22.75 233.964 22.9375C233.339 23.125 232.672 23.5 231.964 24.0625C231.255 24.625 230.63 25.3438 230.089 26.2188C229.568 27.0938 229.13 28.3125 228.776 29.875C228.422 31.4167 228.245 33.1979 228.245 35.2188C228.245 38.3021 228.88 40.8438 230.151 42.8438C231.443 44.8438 233.318 45.8438 235.776 45.8438ZM267.216 49.9375C266.195 49.9375 265.268 49.8542 264.435 49.6875C263.622 49.5208 262.987 49.3438 262.529 49.1562C262.091 48.9688 261.497 48.6875 260.747 48.3125C259.935 48.3125 258.737 48.6146 257.154 49.2188C256.883 49.0521 256.695 48.8646 256.591 48.6562C256.695 48.3229 256.82 47.1875 256.966 45.25C257.133 43.3125 257.216 41.5833 257.216 40.0625C257.487 39.9375 257.977 39.875 258.685 39.875C259.06 41.0833 259.445 42.1146 259.841 42.9688C260.258 43.8229 260.779 44.6562 261.404 45.4688C262.05 46.2604 262.82 46.8646 263.716 47.2812C264.633 47.6771 265.675 47.875 266.841 47.875C268.654 47.875 270.07 47.4062 271.091 46.4688C272.133 45.5312 272.654 44.4688 272.654 43.2812C272.654 42.3854 272.508 41.625 272.216 41C271.925 40.375 271.268 39.7188 270.247 39.0312C269.247 38.3229 267.81 37.625 265.935 36.9375C264.768 36.5208 263.779 36.1354 262.966 35.7812C262.154 35.4271 261.31 34.9896 260.435 34.4688C259.581 33.9479 258.893 33.4167 258.372 32.875C257.852 32.3125 257.425 31.6458 257.091 30.875C256.758 30.1042 256.591 29.2604 256.591 28.3438C256.591 27.6771 256.664 27.0208 256.81 26.375C256.977 25.7083 257.279 25.0208 257.716 24.3125C258.175 23.6042 258.737 22.9896 259.404 22.4688C260.091 21.9271 260.997 21.4896 262.122 21.1562C263.268 20.8021 264.56 20.625 265.997 20.625C266.581 20.625 267.091 20.6562 267.529 20.7188C267.987 20.7812 268.529 20.8958 269.154 21.0625C269.8 21.2083 270.154 21.2917 270.216 21.3125C270.675 21.2083 271.143 21.0729 271.622 20.9062C272.122 20.7396 272.404 20.6458 272.466 20.625H273.279C273.779 23.625 274.425 26.1771 275.216 28.2812C274.966 28.5521 274.56 28.6875 273.997 28.6875C272.268 26.6042 270.789 25.0833 269.56 24.125C268.352 23.1458 266.977 22.6562 265.435 22.6562C264.227 22.6562 263.164 22.9271 262.247 23.4688C261.331 24.0104 260.872 24.8333 260.872 25.9375C260.872 27.3333 261.425 28.4271 262.529 29.2188C263.654 30.0104 265.727 31.0208 268.747 32.25C270.143 32.8125 271.237 33.2812 272.029 33.6562C272.841 34.0312 273.654 34.4792 274.466 35C275.279 35.5208 275.872 36.0625 276.247 36.625C276.643 37.1667 276.966 37.8229 277.216 38.5938C277.466 39.3646 277.591 40.2604 277.591 41.2812C277.591 43.4896 276.57 45.4896 274.529 47.2812C272.508 49.0521 270.07 49.9375 267.216 49.9375Z" fill="black"/>
</svg>
